<?xml version="1.0" encoding="UTF-8" standalone="no"?>
<!DOCTYPE svg PUBLIC "-//W3C//DTD SVG 1.1//EN"
 "http://www.w3.org/Graphics/SVG/1.1/DTD/svg11.dtd">
<!-- Generated by graphviz version 14.1.2 (20260124.0452)
 -->
<!-- Title: G Pages: 1 -->
<svg width="418pt" height="197pt"
 viewBox="0.00 0.00 418.00 197.00" xmlns="http://www.w3.org/2000/svg" xmlns:xlink="http://www.w3.org/1999/xlink">
<g id="graph0" class="graph" transform="scale(1 1) rotate(0) translate(4 193.13)">
<title>G</title><style>.edge>path:hover{stroke-width:8}</style>
<polygon fill="white" stroke="none" points="-4,4 -4,-193.13 414.16,-193.13 414.16,4 -4,4"/>
<!-- asf_wms_asgi -->
<g id="node1" class="node">
<title>asf_wms_asgi</title><style>.edge>path:hover{stroke-width:8}</style>
<ellipse fill="#a44646" stroke="black" cx="45.41" cy="-21.57" rx="45.41" ry="18"/>
<text xml:space="preserve" text-anchor="middle" x="45.41" y="-17.69" font-family="Helvetica,sans-Serif" font-size="10.00" fill="#ffffff">asf_wms.asgi</text>
</g>
<!-- asf_wms_settings -->
<g id="node2" class="node">
<title>asf_wms_settings</title><style>.edge>path:hover{stroke-width:8}</style>
<ellipse fill="#a44646" stroke="black" cx="150.41" cy="-21.57" rx="41.54" ry="21.57"/>
<text xml:space="preserve" text-anchor="middle" x="150.41" y="-23.32" font-family="Helvetica,sans-Serif" font-size="10.00" fill="#ffffff">asf_wms.</text>
<text xml:space="preserve" text-anchor="middle" x="150.41" y="-12.07" font-family="Helvetica,sans-Serif" font-size="10.00" fill="#ffffff">settings</text>
</g>
<!-- asf_wms_urls -->
<g id="node3" class="node">
<title>asf_wms_urls</title><style>.edge>path:hover{stroke-width:8}</style>
<ellipse fill="#793434" stroke="black" cx="254.41" cy="-21.57" rx="44.08" ry="18"/>
<text xml:space="preserve" text-anchor="middle" x="254.41" y="-17.69" font-family="Helvetica,sans-Serif" font-size="10.00" fill="#ffffff">asf_wms.urls</text>
</g>
<!-- asf_wms_wsgi -->
<g id="node4" class="node">
<title>asf_wms_wsgi</title><style>.edge>path:hover{stroke-width:8}</style>
<ellipse fill="#a44646" stroke="black" cx="363.41" cy="-21.57" rx="46.74" ry="18"/>
<text xml:space="preserve" text-anchor="middle" x="363.41" y="-17.69" font-family="Helvetica,sans-Serif" font-size="10.00" fill="#ffffff">asf_wms.wsgi</text>
</g>
<!-- django -->
<g id="node5" class="node">
<title>django</title><style>.edge>path:hover{stroke-width:8}</style>
<polygon fill="blue" stroke="black" points="281.41,-189.13 278.41,-193.13 257.41,-193.13 254.41,-189.13 227.41,-189.13 227.41,-153.13 281.41,-153.13 281.41,-189.13"/>
<text xml:space="preserve" text-anchor="middle" x="254.41" y="-167.26" font-family="Helvetica,sans-Serif" font-size="10.00" fill="white">django</text>
</g>
<!-- django&#45;&gt;asf_wms_asgi -->
<g id="edge1" class="edge">
<title>django&#45;&gt;asf_wms_asgi</title><style>.edge>path:hover{stroke-width:8}</style>
<path fill="none" stroke="black" d="M257.91,-152.91C260.91,-134.3 263.45,-104.11 254.41,-80.13"/>
<path fill="none" stroke="black" d="M254.41,-79.13C224.05,-15.26 167.06,-63.77 99.41,-43.13 95.39,-41.91 91.23,-40.53 87.09,-39.08"/>
<polygon fill="blue" stroke="black" points="88.3,-35.8 77.71,-35.67 85.91,-42.38 88.3,-35.8"/>
</g>
<!-- django&#45;&gt;asf_wms_settings -->
<g id="edge2" class="edge">
<title>django&#45;&gt;asf_wms_settings</title><style>.edge>path:hover{stroke-width:8}</style>
<path fill="none" stroke="black" d="M254.41,-79.13C251.8,-72.2 219.1,-55.11 191.05,-41.52"/>
<polygon fill="blue" stroke="black" points="192.89,-38.52 182.36,-37.35 189.86,-44.83 192.89,-38.52"/>
</g>
<!-- django&#45;&gt;asf_wms_urls -->
<g id="edge3" class="edge">
<title>django&#45;&gt;asf_wms_urls</title><style>.edge>path:hover{stroke-width:8}</style>
<path fill="none" stroke="black" d="M254.41,-79.13C251.14,-70.44 250.28,-60.45 250.51,-51.31"/>
<polygon fill="blue" stroke="black" points="253.99,-51.7 251.2,-41.47 247.01,-51.2 253.99,-51.7"/>
</g>
<!-- django&#45;&gt;asf_wms_wsgi -->
<g id="edge4" class="edge">
<title>django&#45;&gt;asf_wms_wsgi</title><style>.edge>path:hover{stroke-width:8}</style>
<path fill="none" stroke="black" d="M254.41,-79.13C251.59,-71.65 289.52,-53.51 321.4,-39.77"/>
<polygon fill="blue" stroke="black" points="322.68,-43.03 330.52,-35.9 319.95,-36.59 322.68,-43.03"/>
</g>
</g>
</svg>
