<?xml version="1.0" encoding="UTF-8" standalone="no"?>
<!DOCTYPE svg PUBLIC "-//W3C//DTD SVG 1.1//EN"
 "http://www.w3.org/Graphics/SVG/1.1/DTD/svg11.dtd">
<!-- Generated by graphviz version 14.1.2 (20260124.0452)
 -->
<!-- Title: G Pages: 1 -->
<svg width="1231pt" height="642pt"
 viewBox="0.00 0.00 1231.00 642.00" xmlns="http://www.w3.org/2000/svg" xmlns:xlink="http://www.w3.org/1999/xlink">
<g id="graph0" class="graph" transform="scale(1 1) rotate(0) translate(4 638.17)">
<title>G</title><style>.edge>path:hover{stroke-width:8}</style>
<polygon fill="white" stroke="none" points="-4,4 -4,-638.17 1226.81,-638.17 1226.81,4 -4,4"/>
<!-- api_apps -->
<g id="node1" class="node">
<title>api_apps</title><style>.edge>path:hover{stroke-width:8}</style>
<ellipse fill="#ac4949" stroke="black" cx="393.92" cy="-544.17" rx="31.21" ry="18"/>
<text xml:space="preserve" text-anchor="middle" x="393.92" y="-540.3" font-family="Helvetica,sans-Serif" font-size="10.00" fill="#ffffff">api.apps</text>
</g>
<!-- api_tests_tests -->
<g id="node2" class="node">
<title>api_tests_tests</title><style>.edge>path:hover{stroke-width:8}</style>
<ellipse fill="#723131" stroke="black" cx="582.92" cy="-219.61" rx="28.81" ry="29.52"/>
<text xml:space="preserve" text-anchor="middle" x="582.92" y="-226.98" font-family="Helvetica,sans-Serif" font-size="10.00" fill="#ffffff">api.</text>
<text xml:space="preserve" text-anchor="middle" x="582.92" y="-215.73" font-family="Helvetica,sans-Serif" font-size="10.00" fill="#ffffff">tests.</text>
<text xml:space="preserve" text-anchor="middle" x="582.92" y="-204.48" font-family="Helvetica,sans-Serif" font-size="10.00" fill="#ffffff">tests</text>
</g>
<!-- api_tests_tests_integration_filters -->
<g id="node3" class="node">
<title>api_tests_tests_integration_filters</title><style>.edge>path:hover{stroke-width:8}</style>
<ellipse fill="#883a3a" stroke="black" cx="102.92" cy="-124.57" rx="82.91" ry="29.52"/>
<text xml:space="preserve" text-anchor="middle" x="102.92" y="-131.94" font-family="Helvetica,sans-Serif" font-size="10.00" fill="#ffffff">api.</text>
<text xml:space="preserve" text-anchor="middle" x="102.92" y="-120.69" font-family="Helvetica,sans-Serif" font-size="10.00" fill="#ffffff">tests.</text>
<text xml:space="preserve" text-anchor="middle" x="102.92" y="-109.44" font-family="Helvetica,sans-Serif" font-size="10.00" fill="#ffffff">tests_integration_filters</text>
</g>
<!-- api_tests_tests_permissions -->
<g id="node4" class="node">
<title>api_tests_tests_permissions</title><style>.edge>path:hover{stroke-width:8}</style>
<ellipse fill="#793434" stroke="black" cx="958.92" cy="-29.52" rx="67.53" ry="29.52"/>
<text xml:space="preserve" text-anchor="middle" x="958.92" y="-36.9" font-family="Helvetica,sans-Serif" font-size="10.00" fill="#ffffff">api.</text>
<text xml:space="preserve" text-anchor="middle" x="958.92" y="-25.65" font-family="Helvetica,sans-Serif" font-size="10.00" fill="#ffffff">tests.</text>
<text xml:space="preserve" text-anchor="middle" x="958.92" y="-14.4" font-family="Helvetica,sans-Serif" font-size="10.00" fill="#ffffff">tests_permissions</text>
</g>
<!-- api_tests_tests_product_filters -->
<g id="node5" class="node">
<title>api_tests_tests_product_filters</title><style>.edge>path:hover{stroke-width:8}</style>
<ellipse fill="#883a3a" stroke="black" cx="1148.92" cy="-29.52" rx="73.89" ry="29.52"/>
<text xml:space="preserve" text-anchor="middle" x="1148.92" y="-36.9" font-family="Helvetica,sans-Serif" font-size="10.00" fill="#ffffff">api.</text>
<text xml:space="preserve" text-anchor="middle" x="1148.92" y="-25.65" font-family="Helvetica,sans-Serif" font-size="10.00" fill="#ffffff">tests.</text>
<text xml:space="preserve" text-anchor="middle" x="1148.92" y="-14.4" font-family="Helvetica,sans-Serif" font-size="10.00" fill="#ffffff">tests_product_filters</text>
</g>
<!-- api_tests_tests_query_utils -->
<g id="node6" class="node">
<title>api_tests_tests_query_utils</title><style>.edge>path:hover{stroke-width:8}</style>
<ellipse fill="#964040" stroke="black" cx="1088.92" cy="-124.57" rx="63.82" ry="29.52"/>
<text xml:space="preserve" text-anchor="middle" x="1088.92" y="-131.94" font-family="Helvetica,sans-Serif" font-size="10.00" fill="#ffffff">api.</text>
<text xml:space="preserve" text-anchor="middle" x="1088.92" y="-120.69" font-family="Helvetica,sans-Serif" font-size="10.00" fill="#ffffff">tests.</text>
<text xml:space="preserve" text-anchor="middle" x="1088.92" y="-109.44" font-family="Helvetica,sans-Serif" font-size="10.00" fill="#ffffff">tests_query_utils</text>
</g>
<!-- api_tests_tests_views_extra -->
<g id="node7" class="node">
<title>api_tests_tests_views_extra</title><style>.edge>path:hover{stroke-width:8}</style>
<ellipse fill="#6b2e2e" stroke="black" cx="735.92" cy="-219.61" rx="67.53" ry="29.52"/>
<text xml:space="preserve" text-anchor="middle" x="735.92" y="-226.98" font-family="Helvetica,sans-Serif" font-size="10.00" fill="#ffffff">api.</text>
<text xml:space="preserve" text-anchor="middle" x="735.92" y="-215.73" font-family="Helvetica,sans-Serif" font-size="10.00" fill="#ffffff">tests.</text>
<text xml:space="preserve" text-anchor="middle" x="735.92" y="-204.48" font-family="Helvetica,sans-Serif" font-size="10.00" fill="#ffffff">tests_views_extra</text>
</g>
<!-- api_urls -->
<g id="node8" class="node">
<title>api_urls</title><style>.edge>path:hover{stroke-width:8}</style>
<ellipse fill="#ac4949" stroke="black" cx="508.92" cy="-544.17" rx="28.11" ry="18"/>
<text xml:space="preserve" text-anchor="middle" x="508.92" y="-540.3" font-family="Helvetica,sans-Serif" font-size="10.00" fill="#ffffff">api.urls</text>
</g>
<!-- api_v1 -->
<g id="node9" class="node">
<title>api_v1</title><style>.edge>path:hover{stroke-width:8}</style>
<ellipse fill="#e72222" stroke="black" cx="1008.92" cy="-314.65" rx="27" ry="18"/>
<text xml:space="preserve" text-anchor="middle" x="1008.92" y="-310.78" font-family="Helvetica,sans-Serif" font-size="10.00" fill="#ffffff">api.v1</text>
</g>
<!-- api_v1&#45;&gt;api_tests_tests_integration_filters -->
<g id="edge1" class="edge">
<title>api_v1&#45;&gt;api_tests_tests_integration_filters</title><style>.edge>path:hover{stroke-width:8}</style>
<path fill="none" stroke="black" d="M1020.11,-297.82C1032.11,-278.73 1047.8,-246.04 1034.92,-220.61"/>
<path fill="none" stroke="black" d="M1034.92,-218.61C1015,-179.28 983.34,-197.7 939.92,-190.09 654.93,-140.14 577.71,-183.93 289.92,-154.09 256.31,-150.6 219.52,-145.31 187.53,-140.23"/>
<polygon fill="#e72222" stroke="black" points="188.35,-136.82 177.92,-138.69 187.24,-143.73 188.35,-136.82"/>
</g>
<!-- api_v1&#45;&gt;api_tests_tests_permissions -->
<g id="edge2" class="edge">
<title>api_v1&#45;&gt;api_tests_tests_permissions</title><style>.edge>path:hover{stroke-width:8}</style>
<path fill="none" stroke="black" d="M1034.92,-218.61C1010.79,-170.98 930.95,-171.05 958.92,-125.57"/>
</g>
<!-- api_v1&#45;&gt;api_tests_tests_product_filters -->
<g id="edge3" class="edge">
<title>api_v1&#45;&gt;api_tests_tests_product_filters</title><style>.edge>path:hover{stroke-width:8}</style>
<path fill="none" stroke="black" d="M1034.92,-218.61C1014.73,-178.76 967.74,-159.39 996.92,-125.57"/>
</g>
<!-- api_v1&#45;&gt;api_tests_tests_query_utils -->
<g id="edge4" class="edge">
<title>api_v1&#45;&gt;api_tests_tests_query_utils</title><style>.edge>path:hover{stroke-width:8}</style>
<path fill="none" stroke="black" d="M1034.92,-218.61C1024.69,-198.42 1036.24,-176.5 1051.25,-159.01"/>
<polygon fill="#e72222" stroke="black" points="1053.58,-161.64 1057.79,-151.91 1048.44,-156.89 1053.58,-161.64"/>
</g>
<!-- api_v1_integration_filters -->
<g id="node10" class="node">
<title>api_v1_integration_filters</title><style>.edge>path:hover{stroke-width:8}</style>
<ellipse fill="#b42d2d" stroke="black" cx="194.92" cy="-314.65" rx="63.82" ry="29.52"/>
<text xml:space="preserve" text-anchor="middle" x="194.92" y="-322.03" font-family="Helvetica,sans-Serif" font-size="10.00" fill="#ffffff">api.</text>
<text xml:space="preserve" text-anchor="middle" x="194.92" y="-310.78" font-family="Helvetica,sans-Serif" font-size="10.00" fill="#ffffff">v1.</text>
<text xml:space="preserve" text-anchor="middle" x="194.92" y="-299.53" font-family="Helvetica,sans-Serif" font-size="10.00" fill="#ffffff">integration_filters</text>
</g>
<!-- api_v1_integration_filters&#45;&gt;api_tests_tests_integration_filters -->
<g id="edge5" class="edge">
<title>api_v1_integration_filters&#45;&gt;api_tests_tests_integration_filters</title><style>.edge>path:hover{stroke-width:8}</style>
<path fill="none" stroke="black" d="M181.14,-285.49C165.36,-253.22 139.4,-200.15 121.75,-164.07"/>
<polygon fill="#b42d2d" stroke="black" points="124.99,-162.72 117.45,-155.28 118.7,-165.8 124.99,-162.72"/>
</g>
<!-- api_v1_views -->
<g id="node16" class="node">
<title>api_v1_views</title><style>.edge>path:hover{stroke-width:8}</style>
<ellipse fill="#732626" stroke="black" cx="340.92" cy="-124.57" rx="41.86" ry="18"/>
<text xml:space="preserve" text-anchor="middle" x="340.92" y="-120.69" font-family="Helvetica,sans-Serif" font-size="10.00" fill="#ffffff">api.v1.views</text>
</g>
<!-- api_v1_integration_filters&#45;&gt;api_v1_views -->
<g id="edge6" class="edge">
<title>api_v1_integration_filters&#45;&gt;api_v1_views</title><style>.edge>path:hover{stroke-width:8}</style>
<path fill="none" stroke="black" d="M227.54,-289.21C246.23,-272.41 266.63,-248.22 269.92,-220.61"/>
<path fill="none" stroke="black" d="M269.92,-218.61C273.3,-190.26 294.35,-165.01 312.66,-147.99"/>
<polygon fill="#b42d2d" stroke="black" points="314.51,-151.02 319.67,-141.77 309.87,-145.78 314.51,-151.02"/>
</g>
<!-- api_v1_permissions -->
<g id="node11" class="node">
<title>api_v1_permissions</title><style>.edge>path:hover{stroke-width:8}</style>
<ellipse fill="#b42d2d" stroke="black" cx="449.92" cy="-219.61" rx="48.44" ry="29.52"/>
<text xml:space="preserve" text-anchor="middle" x="449.92" y="-226.98" font-family="Helvetica,sans-Serif" font-size="10.00" fill="#ffffff">api.</text>
<text xml:space="preserve" text-anchor="middle" x="449.92" y="-215.73" font-family="Helvetica,sans-Serif" font-size="10.00" fill="#ffffff">v1.</text>
<text xml:space="preserve" text-anchor="middle" x="449.92" y="-204.48" font-family="Helvetica,sans-Serif" font-size="10.00" fill="#ffffff">permissions</text>
</g>
<!-- api_v1_permissions&#45;&gt;api_tests_tests_permissions -->
<g id="edge7" class="edge">
<title>api_v1_permissions&#45;&gt;api_tests_tests_permissions</title><style>.edge>path:hover{stroke-width:8}</style>
<path fill="none" stroke="black" d="M492.15,-204.58C508.5,-199.5 527.45,-194.05 544.92,-190.09 635.72,-169.48 910.14,-204.88 958.92,-125.57"/>
<path fill="none" stroke="black" d="M958.92,-123.57C968.52,-107.95 969.61,-87.9 967.85,-70.41"/>
<polygon fill="#b42d2d" stroke="black" points="971.32,-70.01 966.49,-60.58 964.39,-70.96 971.32,-70.01"/>
</g>
<!-- api_v1_permissions&#45;&gt;api_v1_views -->
<g id="edge8" class="edge">
<title>api_v1_permissions&#45;&gt;api_v1_views</title><style>.edge>path:hover{stroke-width:8}</style>
<path fill="none" stroke="black" d="M422.41,-195.13C405.7,-180.87 384.47,-162.74 367.86,-148.56"/>
<polygon fill="#b42d2d" stroke="black" points="370.2,-145.96 360.32,-142.13 365.65,-151.28 370.2,-145.96"/>
</g>
<!-- api_v1_product_filters -->
<g id="node12" class="node">
<title>api_v1_product_filters</title><style>.edge>path:hover{stroke-width:8}</style>
<ellipse fill="#932424" stroke="black" cx="875.92" cy="-219.61" rx="54.8" ry="29.52"/>
<text xml:space="preserve" text-anchor="middle" x="875.92" y="-226.98" font-family="Helvetica,sans-Serif" font-size="10.00" fill="#ffffff">api.</text>
<text xml:space="preserve" text-anchor="middle" x="875.92" y="-215.73" font-family="Helvetica,sans-Serif" font-size="10.00" fill="#ffffff">v1.</text>
<text xml:space="preserve" text-anchor="middle" x="875.92" y="-204.48" font-family="Helvetica,sans-Serif" font-size="10.00" fill="#ffffff">product_filters</text>
</g>
<!-- api_v1_product_filters&#45;&gt;api_tests_tests_product_filters -->
<g id="edge9" class="edge">
<title>api_v1_product_filters&#45;&gt;api_tests_tests_product_filters</title><style>.edge>path:hover{stroke-width:8}</style>
<path fill="none" stroke="black" d="M912.7,-197.59C931.62,-185.95 954.52,-170.53 972.92,-154.09 985.27,-143.05 986.1,-138.11 996.92,-125.57"/>
<path fill="none" stroke="black" d="M996.92,-123.57C1006.87,-112.03 1004.44,-105.06 1015.92,-95.04 1035.54,-77.92 1060.5,-64.24 1083.48,-53.96"/>
<polygon fill="#932424" stroke="black" points="1084.69,-57.25 1092.49,-50.07 1081.92,-50.82 1084.69,-57.25"/>
</g>
<!-- api_v1_product_filters&#45;&gt;api_v1_views -->
<g id="edge10" class="edge">
<title>api_v1_product_filters&#45;&gt;api_v1_views</title><style>.edge>path:hover{stroke-width:8}</style>
<path fill="none" stroke="black" d="M836.58,-198.71C828.89,-195.42 820.76,-192.35 812.92,-190.09 664.98,-147.47 482.63,-132.71 394.13,-127.84"/>
<polygon fill="#932424" stroke="black" points="394.47,-124.35 384.3,-127.32 394.1,-131.34 394.47,-124.35"/>
</g>
<!-- api_v1_query_utils -->
<g id="node13" class="node">
<title>api_v1_query_utils</title><style>.edge>path:hover{stroke-width:8}</style>
<ellipse fill="#ce3b3b" stroke="black" cx="880.92" cy="-314.65" rx="44.72" ry="29.52"/>
<text xml:space="preserve" text-anchor="middle" x="880.92" y="-322.03" font-family="Helvetica,sans-Serif" font-size="10.00" fill="#ffffff">api.</text>
<text xml:space="preserve" text-anchor="middle" x="880.92" y="-310.78" font-family="Helvetica,sans-Serif" font-size="10.00" fill="#ffffff">v1.</text>
<text xml:space="preserve" text-anchor="middle" x="880.92" y="-299.53" font-family="Helvetica,sans-Serif" font-size="10.00" fill="#ffffff">query_utils</text>
</g>
<!-- api_v1_query_utils&#45;&gt;api_tests_tests_query_utils -->
<g id="edge11" class="edge">
<title>api_v1_query_utils&#45;&gt;api_tests_tests_query_utils</title><style>.edge>path:hover{stroke-width:8}</style>
<path fill="none" stroke="black" d="M906.84,-290.21C943.34,-257.21 1010.08,-196.86 1051.82,-159.11"/>
<polygon fill="#ce3b3b" stroke="black" points="1054.14,-161.73 1059.21,-152.43 1049.44,-156.54 1054.14,-161.73"/>
</g>
<!-- api_v1_query_utils&#45;&gt;api_v1_product_filters -->
<g id="edge12" class="edge">
<title>api_v1_query_utils&#45;&gt;api_v1_product_filters</title><style>.edge>path:hover{stroke-width:8}</style>
<path fill="none" stroke="black" d="M879.36,-284.72C878.96,-277.2 878.52,-268.95 878.09,-260.95"/>
<polygon fill="#ce3b3b" stroke="black" points="881.58,-260.83 877.55,-251.03 874.59,-261.2 881.58,-260.83"/>
</g>
<!-- api_v1_serializers -->
<g id="node14" class="node">
<title>api_v1_serializers</title><style>.edge>path:hover{stroke-width:8}</style>
<ellipse fill="#a83838" stroke="black" cx="340.92" cy="-219.61" rx="42.6" ry="29.52"/>
<text xml:space="preserve" text-anchor="middle" x="340.92" y="-226.98" font-family="Helvetica,sans-Serif" font-size="10.00" fill="#ffffff">api.</text>
<text xml:space="preserve" text-anchor="middle" x="340.92" y="-215.73" font-family="Helvetica,sans-Serif" font-size="10.00" fill="#ffffff">v1.</text>
<text xml:space="preserve" text-anchor="middle" x="340.92" y="-204.48" font-family="Helvetica,sans-Serif" font-size="10.00" fill="#ffffff">serializers</text>
</g>
<!-- api_v1_serializers&#45;&gt;api_v1_views -->
<g id="edge13" class="edge">
<title>api_v1_serializers&#45;&gt;api_v1_views</title><style>.edge>path:hover{stroke-width:8}</style>
<path fill="none" stroke="black" d="M340.92,-189.68C340.92,-178.4 340.92,-165.49 340.92,-154.24"/>
<polygon fill="#a83838" stroke="black" points="344.42,-154.33 340.92,-144.33 337.42,-154.33 344.42,-154.33"/>
</g>
<!-- api_v1_urls -->
<g id="node15" class="node">
<title>api_v1_urls</title><style>.edge>path:hover{stroke-width:8}</style>
<ellipse fill="#964040" stroke="black" cx="286.92" cy="-29.52" rx="36.09" ry="18"/>
<text xml:space="preserve" text-anchor="middle" x="286.92" y="-25.65" font-family="Helvetica,sans-Serif" font-size="10.00" fill="#ffffff">api.v1.urls</text>
</g>
<!-- api_v1_views&#45;&gt;api_v1_urls -->
<g id="edge14" class="edge">
<title>api_v1_views&#45;&gt;api_v1_urls</title><style>.edge>path:hover{stroke-width:8}</style>
<path fill="none" stroke="black" d="M331.26,-106.93C323.25,-93.12 311.7,-73.23 302.4,-57.2"/>
<polygon fill="#732626" stroke="black" points="305.48,-55.53 297.43,-48.63 299.42,-59.04 305.48,-55.53"/>
</g>
<!-- contacts -->
<g id="node17" class="node">
<title>contacts</title><style>.edge>path:hover{stroke-width:8}</style>
<polygon fill="#a9c247" stroke="black" points="754.92,-453.17 751.92,-457.17 730.92,-457.17 727.92,-453.17 700.92,-453.17 700.92,-417.17 754.92,-417.17 754.92,-453.17"/>
<text xml:space="preserve" text-anchor="middle" x="727.92" y="-431.3" font-family="Helvetica,sans-Serif" font-size="10.00" fill="#000000">contacts</text>
</g>
<!-- contacts&#45;&gt;api_tests_tests -->
<g id="edge15" class="edge">
<title>contacts&#45;&gt;api_tests_tests</title><style>.edge>path:hover{stroke-width:8}</style>
<path fill="none" stroke="black" d="M751.22,-417.12C761.11,-407.78 770.31,-395.26 769.92,-381.17"/>
<path fill="none" stroke="black" d="M769.92,-380.17C768.3,-321.98 684.37,-366.44 655.92,-315.65"/>
</g>
<!-- contacts&#45;&gt;api_tests_tests_views_extra -->
<g id="edge16" class="edge">
<title>contacts&#45;&gt;api_tests_tests_views_extra</title><style>.edge>path:hover{stroke-width:8}</style>
<path fill="none" stroke="black" d="M769.92,-380.17C769.12,-351.51 777.06,-343.42 769.92,-315.65"/>
</g>
<!-- django -->
<g id="node18" class="node">
<title>django</title><style>.edge>path:hover{stroke-width:8}</style>
<polygon fill="blue" stroke="black" points="507.92,-634.17 504.92,-638.17 483.92,-638.17 480.92,-634.17 453.92,-634.17 453.92,-598.17 507.92,-598.17 507.92,-634.17"/>
<text xml:space="preserve" text-anchor="middle" x="480.92" y="-612.3" font-family="Helvetica,sans-Serif" font-size="10.00" fill="white">django</text>
</g>
<!-- django&#45;&gt;api_apps -->
<g id="edge17" class="edge">
<title>django&#45;&gt;api_apps</title><style>.edge>path:hover{stroke-width:8}</style>
<path fill="none" stroke="black" d="M459.41,-597.87C447.59,-588.36 432.82,-576.48 420.31,-566.41"/>
<polygon fill="blue" stroke="black" points="422.83,-563.94 412.84,-560.4 418.44,-569.4 422.83,-563.94"/>
</g>
<!-- django&#45;&gt;api_tests_tests -->
<g id="edge18" class="edge">
<title>django&#45;&gt;api_tests_tests</title><style>.edge>path:hover{stroke-width:8}</style>
<path fill="none" stroke="black" d="M727.92,-489.17C725.27,-466.7 703.18,-472.8 691.92,-453.17 660.49,-398.37 686.8,-370.77 655.92,-315.65"/>
</g>
<!-- django&#45;&gt;api_tests_tests_integration_filters -->
<g id="edge19" class="edge">
<title>django&#45;&gt;api_tests_tests_integration_filters</title><style>.edge>path:hover{stroke-width:8}</style>
<path fill="none" stroke="black" d="M102.92,-218.61C98.29,-201.51 97.63,-181.98 98.38,-165.24"/>
<polygon fill="blue" stroke="black" points="101.85,-165.88 99,-155.68 94.86,-165.43 101.85,-165.88"/>
</g>
<!-- django&#45;&gt;api_tests_tests_permissions -->
<g id="edge20" class="edge">
<title>django&#45;&gt;api_tests_tests_permissions</title><style>.edge>path:hover{stroke-width:8}</style>
<path fill="none" stroke="black" d="M953.92,-380.17C968.54,-325.5 929.45,-173.88 958.92,-125.57"/>
</g>
<!-- django&#45;&gt;api_tests_tests_product_filters -->
<g id="edge21" class="edge">
<title>django&#45;&gt;api_tests_tests_product_filters</title><style>.edge>path:hover{stroke-width:8}</style>
<path fill="none" stroke="black" d="M1180.92,-218.61C1188.29,-166.98 1174.48,-107.7 1162.77,-69.72"/>
<polygon fill="blue" stroke="black" points="1166.22,-69.03 1159.84,-60.57 1159.55,-71.16 1166.22,-69.03"/>
</g>
<!-- django&#45;&gt;api_tests_tests_query_utils -->
<g id="edge22" class="edge">
<title>django&#45;&gt;api_tests_tests_query_utils</title><style>.edge>path:hover{stroke-width:8}</style>
<path fill="none" stroke="black" d="M953.92,-380.17C963.59,-337.77 1008,-367.17 1044.92,-344.17 1114.24,-300.99 1163.18,-300.33 1180.92,-220.61"/>
<path fill="none" stroke="black" d="M1180.92,-218.61C1184.82,-191.23 1164.21,-168.85 1141.52,-152.91"/>
<polygon fill="blue" stroke="black" points="1143.62,-150.1 1133.34,-147.52 1139.77,-155.95 1143.62,-150.1"/>
</g>
<!-- django&#45;&gt;api_tests_tests_views_extra -->
<g id="edge23" class="edge">
<title>django&#45;&gt;api_tests_tests_views_extra</title><style>.edge>path:hover{stroke-width:8}</style>
<path fill="none" stroke="black" d="M727.92,-489.17C722.64,-433.76 938.33,-434.61 953.92,-381.17"/>
<path fill="none" stroke="black" d="M953.92,-380.17C973.19,-295.68 791.51,-399.58 769.92,-315.65"/>
</g>
<!-- django&#45;&gt;api_urls -->
<g id="edge24" class="edge">
<title>django&#45;&gt;api_urls</title><style>.edge>path:hover{stroke-width:8}</style>
<path fill="none" stroke="black" d="M487.84,-597.87C490.9,-590.21 494.58,-581.02 498,-572.48"/>
<polygon fill="blue" stroke="black" points="501.24,-573.79 501.71,-563.2 494.74,-571.19 501.24,-573.79"/>
</g>
<!-- django&#45;&gt;api_v1_integration_filters -->
<g id="edge25" class="edge">
<title>django&#45;&gt;api_v1_integration_filters</title><style>.edge>path:hover{stroke-width:8}</style>
<path fill="none" stroke="black" d="M194.92,-380.17C187.47,-374.15 184.99,-364.95 185.01,-355.37"/>
<polygon fill="blue" stroke="black" points="188.47,-355.89 185.88,-345.62 181.5,-355.27 188.47,-355.89"/>
</g>
<!-- django&#45;&gt;api_v1_permissions -->
<g id="edge26" class="edge">
<title>django&#45;&gt;api_v1_permissions</title><style>.edge>path:hover{stroke-width:8}</style>
<path fill="none" stroke="black" d="M452.92,-489.17C447.21,-472.62 465.28,-470.3 468.92,-453.17 472.24,-437.52 469.69,-433.16 468.92,-417.17 466.3,-362.9 459.64,-300.49 454.95,-260.82"/>
<polygon fill="blue" stroke="black" points="458.44,-260.54 453.77,-251.02 451.49,-261.37 458.44,-260.54"/>
</g>
<!-- django&#45;&gt;api_v1_product_filters -->
<g id="edge27" class="edge">
<title>django&#45;&gt;api_v1_product_filters</title><style>.edge>path:hover{stroke-width:8}</style>
<path fill="none" stroke="black" d="M953.92,-380.17C969.7,-311.01 804.2,-386.5 807.92,-315.65"/>
</g>
<!-- django&#45;&gt;api_v1_urls -->
<g id="edge28" class="edge">
<title>django&#45;&gt;api_v1_urls</title><style>.edge>path:hover{stroke-width:8}</style>
<path fill="none" stroke="black" d="M194.92,-380.17C166.78,-357.44 143.31,-373.35 121.92,-344.17 89.07,-299.36 117.43,-274.24 102.92,-220.61"/>
<path fill="none" stroke="black" d="M477.71,-598C472.1,-568.58 460.41,-509.81 452.92,-490.17"/>
<path fill="none" stroke="black" d="M102.92,-218.61C87.21,-171.2 33.96,-198.39 10.92,-154.09 -1.19,-130.81 -5.39,-115.6 10.92,-95.04 39.02,-59.62 169,-41.8 240.11,-34.57"/>
<polygon fill="blue" stroke="black" points="240.3,-38.07 249.91,-33.61 239.61,-31.1 240.3,-38.07"/>
<path fill="none" stroke="black" d="M452.92,-489.17C452.01,-487.47 326.61,-437.09 324.92,-436.17"/>
<path fill="none" stroke="black" d="M324.92,-434.17C270.03,-404.49 242.33,-421.74 194.92,-381.17"/>
</g>
<!-- django&#45;&gt;api_v1_views -->
<g id="edge29" class="edge">
<title>django&#45;&gt;api_v1_views</title><style>.edge>path:hover{stroke-width:8}</style>
<path fill="none" stroke="black" d="M324.92,-434.17C283.14,-408.55 264.12,-269.27 269.92,-220.61"/>
</g>
<!-- django&#45;&gt;contacts -->
<g id="edge30" class="edge">
<title>django&#45;&gt;contacts</title><style>.edge>path:hover{stroke-width:8}</style>
<path fill="none" stroke="black" d="M727.92,-489.17C726.99,-481.28 726.69,-472.69 726.7,-464.76"/>
<polygon fill="blue" stroke="black" points="730.19,-464.99 726.88,-454.93 723.19,-464.87 730.19,-464.99"/>
</g>
<!-- rest_framework -->
<g id="node19" class="node">
<title>rest_framework</title><style>.edge>path:hover{stroke-width:8}</style>
<polygon fill="#106df9" stroke="black" points="459.67,-453.17 456.67,-457.17 435.67,-457.17 432.67,-453.17 376.17,-453.17 376.17,-417.17 459.67,-417.17 459.67,-453.17"/>
<text xml:space="preserve" text-anchor="middle" x="417.92" y="-431.3" font-family="Helvetica,sans-Serif" font-size="10.00" fill="#ffffff">rest_framework</text>
</g>
<!-- django&#45;&gt;rest_framework -->
<g id="edge31" class="edge">
<title>django&#45;&gt;rest_framework</title><style>.edge>path:hover{stroke-width:8}</style>
<path fill="none" stroke="black" d="M452.92,-489.17C449.75,-479.98 444.61,-470.84 439.24,-462.8"/>
<polygon fill="blue" stroke="black" points="442.22,-460.95 433.56,-454.84 436.52,-465.01 442.22,-460.95"/>
</g>
<!-- wms -->
<g id="node20" class="node">
<title>wms</title><style>.edge>path:hover{stroke-width:8}</style>
<polygon fill="#c716f3" stroke="black" points="644.92,-453.17 641.92,-457.17 620.92,-457.17 617.92,-453.17 590.92,-453.17 590.92,-417.17 644.92,-417.17 644.92,-453.17"/>
<text xml:space="preserve" text-anchor="middle" x="617.92" y="-431.3" font-family="Helvetica,sans-Serif" font-size="10.00" fill="#ffffff">wms</text>
</g>
<!-- django&#45;&gt;wms -->
<g id="edge32" class="edge">
<title>django&#45;&gt;wms</title><style>.edge>path:hover{stroke-width:8}</style>
<path fill="none" stroke="black" d="M727.92,-489.17C726.97,-485.19 687.09,-466.7 655.62,-452.68"/>
<polygon fill="blue" stroke="black" points="657.28,-449.58 646.72,-448.73 654.44,-455.98 657.28,-449.58"/>
<path fill="none" stroke="black" d="M508.38,-613.74C577.36,-608.68 750.81,-586.37 727.92,-490.17"/>
</g>
<!-- rest_framework&#45;&gt;api_tests_tests -->
<g id="edge33" class="edge">
<title>rest_framework&#45;&gt;api_tests_tests</title><style>.edge>path:hover{stroke-width:8}</style>
<path fill="none" stroke="black" d="M411.92,-313.65C411.84,-298.5 495.79,-258.91 546.08,-236.57"/>
<polygon fill="#106df9" stroke="black" points="547.44,-239.79 555.17,-232.55 544.61,-233.39 547.44,-239.79"/>
</g>
<!-- rest_framework&#45;&gt;api_tests_tests_permissions -->
<g id="edge34" class="edge">
<title>rest_framework&#45;&gt;api_tests_tests_permissions</title><style>.edge>path:hover{stroke-width:8}</style>
<path fill="none" stroke="black" d="M460.09,-433.06C518.48,-428.97 622.15,-411.96 669.92,-344.17 709.47,-288.05 615.78,-243.5 658.92,-190.09 744.62,-83.99 887.48,-241.74 958.92,-125.57"/>
</g>
<!-- rest_framework&#45;&gt;api_tests_tests_views_extra -->
<g id="edge35" class="edge">
<title>rest_framework&#45;&gt;api_tests_tests_views_extra</title><style>.edge>path:hover{stroke-width:8}</style>
<path fill="none" stroke="black" d="M443.94,-416.7C497.99,-380.4 622.98,-296.46 690.57,-251.06"/>
<polygon fill="#106df9" stroke="black" points="692.11,-254.25 698.46,-245.77 688.2,-248.44 692.11,-254.25"/>
</g>
<!-- rest_framework&#45;&gt;api_v1_permissions -->
<g id="edge36" class="edge">
<title>rest_framework&#45;&gt;api_v1_permissions</title><style>.edge>path:hover{stroke-width:8}</style>
<path fill="none" stroke="black" d="M411.92,-313.65C411.82,-294.15 419.05,-273.93 427.23,-257.35"/>
<polygon fill="#106df9" stroke="black" points="430.13,-259.35 431.69,-248.87 423.94,-256.09 430.13,-259.35"/>
</g>
<!-- rest_framework&#45;&gt;api_v1_serializers -->
<g id="edge37" class="edge">
<title>rest_framework&#45;&gt;api_v1_serializers</title><style>.edge>path:hover{stroke-width:8}</style>
<path fill="none" stroke="black" d="M411.92,-313.65C411.79,-288.51 395.19,-265.93 378.08,-249.31"/>
<polygon fill="#106df9" stroke="black" points="380.56,-246.84 370.82,-242.67 375.84,-252.01 380.56,-246.84"/>
</g>
<!-- rest_framework&#45;&gt;api_v1_urls -->
<g id="edge38" class="edge">
<title>rest_framework&#45;&gt;api_v1_urls</title><style>.edge>path:hover{stroke-width:8}</style>
<path fill="none" stroke="black" d="M394.47,-416.91C356.72,-387.47 283.86,-323.47 255.92,-249.13 231.27,-183.56 257.61,-100.21 274.7,-57.87"/>
<polygon fill="#106df9" stroke="black" points="277.91,-59.28 278.54,-48.7 271.45,-56.58 277.91,-59.28"/>
</g>
<!-- rest_framework&#45;&gt;api_v1_views -->
<g id="edge39" class="edge">
<title>rest_framework&#45;&gt;api_v1_views</title><style>.edge>path:hover{stroke-width:8}</style>
<path fill="none" stroke="black" d="M411.92,-313.65C411.52,-238.2 260.99,-295.53 269.92,-220.61"/>
<path fill="none" stroke="black" d="M416.55,-416.91C414.84,-393.85 412.11,-351.71 411.92,-315.65"/>
</g>
<!-- wms&#45;&gt;api_tests_tests -->
<g id="edge40" class="edge">
<title>wms&#45;&gt;api_tests_tests</title><style>.edge>path:hover{stroke-width:8}</style>
<path fill="none" stroke="black" d="M655.92,-313.65C643.1,-290.77 624.9,-267.56 609.88,-250.04"/>
<polygon fill="#c716f3" stroke="black" points="612.57,-247.8 603.35,-242.57 607.3,-252.41 612.57,-247.8"/>
<path fill="none" stroke="black" d="M614.03,-416.98C612.47,-406.11 612.21,-392.1 617.92,-381.17"/>
<path fill="none" stroke="black" d="M617.92,-380.17C633.34,-350.68 672.18,-344.69 655.92,-315.65"/>
</g>
<!-- wms&#45;&gt;api_tests_tests_views_extra -->
<g id="edge41" class="edge">
<title>wms&#45;&gt;api_tests_tests_views_extra</title><style>.edge>path:hover{stroke-width:8}</style>
<path fill="none" stroke="black" d="M617.92,-380.17C651.92,-315.14 788.21,-386.73 769.92,-315.65"/>
<path fill="none" stroke="black" d="M769.92,-313.65C765.24,-295.48 758.38,-275.9 752.04,-259.41"/>
<polygon fill="#c716f3" stroke="black" points="755.44,-258.5 748.53,-250.47 748.93,-261.06 755.44,-258.5"/>
</g>
<!-- wms&#45;&gt;api_v1_product_filters -->
<g id="edge42" class="edge">
<title>wms&#45;&gt;api_v1_product_filters</title><style>.edge>path:hover{stroke-width:8}</style>
<path fill="none" stroke="black" d="M645.11,-423.47C697.03,-402.19 805.4,-353.38 807.92,-315.65"/>
<path fill="none" stroke="black" d="M807.92,-313.65C809.13,-290.51 823.16,-269.27 838.17,-252.94"/>
<polygon fill="#c716f3" stroke="black" points="840.51,-255.55 844.98,-245.95 835.5,-250.66 840.51,-255.55"/>
</g>
<!-- wms&#45;&gt;api_v1_serializers -->
<g id="edge43" class="edge">
<title>wms&#45;&gt;api_v1_serializers</title><style>.edge>path:hover{stroke-width:8}</style>
<path fill="none" stroke="black" d="M525.92,-380.17C482.83,-336.55 472.63,-324.85 425.92,-285.13 410.96,-272.41 393.81,-259.16 378.86,-248"/>
<polygon fill="#c716f3" stroke="black" points="381.2,-245.39 371.08,-242.25 377.04,-251.01 381.2,-245.39"/>
<path fill="none" stroke="black" d="M590.55,-423.51C570.61,-414.62 544.03,-400.33 525.92,-381.17"/>
</g>
<!-- wms&#45;&gt;api_v1_views -->
<g id="edge44" class="edge">
<title>wms&#45;&gt;api_v1_views</title><style>.edge>path:hover{stroke-width:8}</style>
<path fill="none" stroke="black" d="M525.92,-380.17C467.6,-318.47 558.29,-257.69 506.92,-190.09 479.84,-154.46 430.33,-138.5 392.4,-131.35"/>
<polygon fill="#c716f3" stroke="black" points="393.48,-127.98 383.03,-129.73 392.3,-134.88 393.48,-127.98"/>
</g>
</g>
</svg>
