<?xml version="1.0" encoding="UTF-8" standalone="no"?>
<!DOCTYPE svg PUBLIC "-//W3C//DTD SVG 1.1//EN"
 "http://www.w3.org/Graphics/SVG/1.1/DTD/svg11.dtd">
<!-- Generated by graphviz version 14.1.2 (20260124.0452)
 -->
<!-- Title: G Pages: 1 -->
<svg width="505pt" height="589pt"
 viewBox="0.00 0.00 505.00 589.00" xmlns="http://www.w3.org/2000/svg" xmlns:xlink="http://www.w3.org/1999/xlink">
<g id="graph0" class="graph" transform="scale(1 1) rotate(0) translate(4 585.26)">
<title>G</title><style>.edge>path:hover{stroke-width:8}</style>
<polygon fill="white" stroke="none" points="-4,4 -4,-585.26 500.54,-585.26 500.54,4 -4,4"/>
<!-- contacts_admin -->
<g id="node1" class="node">
<title>contacts_admin</title><style>.edge>path:hover{stroke-width:8}</style>
<ellipse fill="#913030" stroke="black" cx="83.02" cy="-150.04" rx="48.96" ry="18"/>
<text xml:space="preserve" text-anchor="middle" x="83.02" y="-146.17" font-family="Helvetica,sans-Serif" font-size="10.00" fill="#ffffff">contacts.admin</text>
</g>
<!-- contacts_tests_tests_admin -->
<g id="node5" class="node">
<title>contacts_tests_tests_admin</title><style>.edge>path:hover{stroke-width:8}</style>
<ellipse fill="#723131" stroke="black" cx="83.02" cy="-29.52" rx="48.97" ry="29.52"/>
<text xml:space="preserve" text-anchor="middle" x="83.02" y="-36.9" font-family="Helvetica,sans-Serif" font-size="10.00" fill="#ffffff">contacts.</text>
<text xml:space="preserve" text-anchor="middle" x="83.02" y="-25.65" font-family="Helvetica,sans-Serif" font-size="10.00" fill="#ffffff">tests.</text>
<text xml:space="preserve" text-anchor="middle" x="83.02" y="-14.4" font-family="Helvetica,sans-Serif" font-size="10.00" fill="#ffffff">tests_admin</text>
</g>
<!-- contacts_admin&#45;&gt;contacts_tests_tests_admin -->
<g id="edge1" class="edge">
<title>contacts_admin&#45;&gt;contacts_tests_tests_admin</title><style>.edge>path:hover{stroke-width:8}</style>
<path fill="none" stroke="black" d="M84.21,-131.78C84.63,-121.38 84.65,-107.89 83.02,-96.04"/>
</g>
<!-- contacts_apps -->
<g id="node2" class="node">
<title>contacts_apps</title><style>.edge>path:hover{stroke-width:8}</style>
<ellipse fill="#ac4949" stroke="black" cx="297.02" cy="-491.26" rx="45.86" ry="18"/>
<text xml:space="preserve" text-anchor="middle" x="297.02" y="-487.39" font-family="Helvetica,sans-Serif" font-size="10.00" fill="#ffffff">contacts.apps</text>
</g>
<!-- contacts_models -->
<g id="node3" class="node">
<title>contacts_models</title><style>.edge>path:hover{stroke-width:8}</style>
<ellipse fill="#ae1e1e" stroke="black" cx="81.02" cy="-415.7" rx="39.95" ry="21.57"/>
<text xml:space="preserve" text-anchor="middle" x="81.02" y="-417.45" font-family="Helvetica,sans-Serif" font-size="10.00" fill="#ffffff">contacts.</text>
<text xml:space="preserve" text-anchor="middle" x="81.02" y="-406.2" font-family="Helvetica,sans-Serif" font-size="10.00" fill="#ffffff">models</text>
</g>
<!-- contacts_models&#45;&gt;contacts_admin -->
<g id="edge2" class="edge">
<title>contacts_models&#45;&gt;contacts_admin</title><style>.edge>path:hover{stroke-width:8}</style>
<path fill="none" stroke="black" d="M6.02,-232.57C11.5,-207.56 31.67,-186.74 49.98,-172.4"/>
<polygon fill="#ae1e1e" stroke="black" points="51.59,-175.56 57.54,-166.79 47.42,-169.94 51.59,-175.56"/>
</g>
<!-- contacts_models&#45;&gt;contacts_tests_tests_admin -->
<g id="edge3" class="edge">
<title>contacts_models&#45;&gt;contacts_tests_tests_admin</title><style>.edge>path:hover{stroke-width:8}</style>
<path fill="none" stroke="black" d="M83.02,-95.04C81.94,-87.22 81.45,-78.8 81.32,-70.72"/>
<polygon fill="#ae1e1e" stroke="black" points="84.82,-70.74 81.34,-60.74 77.82,-70.73 84.82,-70.74"/>
<path fill="none" stroke="black" d="M56.21,-398.62C36.19,-383.64 10.61,-359.19 6.02,-329.61"/>
<path fill="none" stroke="black" d="M6.02,-327.61C-0.33,-286.75 -2.84,-274.96 6.02,-234.57"/>
<path fill="none" stroke="black" d="M6.02,-232.57C15.76,-188.15 -0.7,-169.54 25.02,-132.04 42.17,-107.02 87.16,-126.1 83.02,-96.04"/>
</g>
<!-- contacts_tests_tests_models -->
<g id="node6" class="node">
<title>contacts_tests_tests_models</title><style>.edge>path:hover{stroke-width:8}</style>
<ellipse fill="#9d4343" stroke="black" cx="87.02" cy="-233.57" rx="52.68" ry="29.52"/>
<text xml:space="preserve" text-anchor="middle" x="87.02" y="-240.94" font-family="Helvetica,sans-Serif" font-size="10.00" fill="#ffffff">contacts.</text>
<text xml:space="preserve" text-anchor="middle" x="87.02" y="-229.69" font-family="Helvetica,sans-Serif" font-size="10.00" fill="#ffffff">tests.</text>
<text xml:space="preserve" text-anchor="middle" x="87.02" y="-218.44" font-family="Helvetica,sans-Serif" font-size="10.00" fill="#ffffff">tests_models</text>
</g>
<!-- contacts_models&#45;&gt;contacts_tests_tests_models -->
<g id="edge4" class="edge">
<title>contacts_models&#45;&gt;contacts_tests_tests_models</title><style>.edge>path:hover{stroke-width:8}</style>
<path fill="none" stroke="black" d="M6.02,-327.61C1.92,-301.25 20.99,-278.51 41.65,-262.11"/>
<polygon fill="#ae1e1e" stroke="black" points="43.71,-264.94 49.64,-256.16 39.53,-259.33 43.71,-264.94"/>
</g>
<!-- contacts_tests_tests -->
<g id="node4" class="node">
<title>contacts_tests_tests</title><style>.edge>path:hover{stroke-width:8}</style>
<ellipse fill="#ac4949" stroke="black" cx="371.02" cy="-328.61" rx="39.95" ry="29.52"/>
<text xml:space="preserve" text-anchor="middle" x="371.02" y="-335.98" font-family="Helvetica,sans-Serif" font-size="10.00" fill="#ffffff">contacts.</text>
<text xml:space="preserve" text-anchor="middle" x="371.02" y="-324.73" font-family="Helvetica,sans-Serif" font-size="10.00" fill="#ffffff">tests.</text>
<text xml:space="preserve" text-anchor="middle" x="371.02" y="-313.48" font-family="Helvetica,sans-Serif" font-size="10.00" fill="#ffffff">tests</text>
</g>
<!-- contacts_views -->
<g id="node7" class="node">
<title>contacts_views</title><style>.edge>path:hover{stroke-width:8}</style>
<ellipse fill="#ac4949" stroke="black" cx="448.02" cy="-415.7" rx="48.52" ry="18"/>
<text xml:space="preserve" text-anchor="middle" x="448.02" y="-411.82" font-family="Helvetica,sans-Serif" font-size="10.00" fill="#ffffff">contacts.views</text>
</g>
<!-- django -->
<g id="node8" class="node">
<title>django</title><style>.edge>path:hover{stroke-width:8}</style>
<polygon fill="#06ef06" stroke="black" points="324.02,-581.26 321.02,-585.26 300.02,-585.26 297.02,-581.26 270.02,-581.26 270.02,-545.26 324.02,-545.26 324.02,-581.26"/>
<text xml:space="preserve" text-anchor="middle" x="297.02" y="-559.39" font-family="Helvetica,sans-Serif" font-size="10.00" fill="#000000">django</text>
</g>
<!-- django&#45;&gt;contacts_admin -->
<g id="edge5" class="edge">
<title>django&#45;&gt;contacts_admin</title><style>.edge>path:hover{stroke-width:8}</style>
<path fill="none" stroke="black" d="M168.02,-327.61C142.21,-278.4 176.79,-252.17 149.02,-204.04 141.66,-191.29 129.95,-180.4 118.42,-171.87"/>
<polygon fill="#06ef06" stroke="black" points="120.75,-169.23 110.54,-166.4 116.76,-174.98 120.75,-169.23"/>
</g>
<!-- django&#45;&gt;contacts_apps -->
<g id="edge6" class="edge">
<title>django&#45;&gt;contacts_apps</title><style>.edge>path:hover{stroke-width:8}</style>
<path fill="none" stroke="black" d="M297.02,-544.96C297.02,-537.67 297.02,-528.99 297.02,-520.8"/>
<polygon fill="#06ef06" stroke="black" points="300.52,-520.88 297.02,-510.88 293.52,-520.88 300.52,-520.88"/>
</g>
<!-- django&#45;&gt;contacts_models -->
<g id="edge7" class="edge">
<title>django&#45;&gt;contacts_models</title><style>.edge>path:hover{stroke-width:8}</style>
<path fill="none" stroke="black" d="M277.79,-544.8C262.64,-530.86 241.11,-510.68 223.02,-492.26"/>
<path fill="none" stroke="black" d="M223.02,-490.26C195.86,-462.63 156.12,-443.26 125.58,-431.36"/>
<polygon fill="#06ef06" stroke="black" points="127.2,-428.23 116.61,-427.99 124.74,-434.79 127.2,-428.23"/>
</g>
<!-- django&#45;&gt;contacts_tests_tests -->
<g id="edge8" class="edge">
<title>django&#45;&gt;contacts_tests_tests</title><style>.edge>path:hover{stroke-width:8}</style>
<path fill="none" stroke="black" d="M371.02,-490.26C396.7,-455.42 391.24,-403.77 382.96,-368.51"/>
<polygon fill="#06ef06" stroke="black" points="386.44,-367.97 380.58,-359.14 379.65,-369.7 386.44,-367.97"/>
<path fill="none" stroke="black" d="M318.25,-544.88C333.89,-531.47 355.12,-511.93 371.02,-492.26"/>
</g>
<!-- django&#45;&gt;contacts_tests_tests_admin -->
<g id="edge9" class="edge">
<title>django&#45;&gt;contacts_tests_tests_admin</title><style>.edge>path:hover{stroke-width:8}</style>
<path fill="none" stroke="black" d="M223.02,-414.7C223.02,-384.9 250.68,-386.74 259.02,-358.13 285.58,-266.91 266.4,-224.39 206.02,-151.04"/>
</g>
<!-- django&#45;&gt;contacts_tests_tests_models -->
<g id="edge10" class="edge">
<title>django&#45;&gt;contacts_tests_tests_models</title><style>.edge>path:hover{stroke-width:8}</style>
<path fill="none" stroke="black" d="M223.02,-414.7C223.02,-411.88 169.32,-332.1 168.02,-329.61"/>
<path fill="none" stroke="black" d="M223.02,-490.26C200.1,-466.94 223.02,-449.39 223.02,-416.7"/>
<path fill="none" stroke="black" d="M168.02,-327.61C156.22,-305.12 137.97,-283.49 121.78,-266.77"/>
<polygon fill="#06ef06" stroke="black" points="124.63,-264.67 115.1,-260.04 119.66,-269.6 124.63,-264.67"/>
</g>
<!-- django&#45;&gt;contacts_views -->
<g id="edge11" class="edge">
<title>django&#45;&gt;contacts_views</title><style>.edge>path:hover{stroke-width:8}</style>
<path fill="none" stroke="black" d="M371.02,-490.26C384.86,-471.48 403.78,-453.33 419.39,-439.76"/>
<polygon fill="#06ef06" stroke="black" points="421.63,-442.45 426.99,-433.31 417.1,-437.12 421.63,-442.45"/>
</g>
<!-- wms -->
<g id="node9" class="node">
<title>wms</title><style>.edge>path:hover{stroke-width:8}</style>
<polygon fill="#3b3bce" stroke="black" points="250.02,-346.61 247.02,-350.61 226.02,-350.61 223.02,-346.61 196.02,-346.61 196.02,-310.61 250.02,-310.61 250.02,-346.61"/>
<text xml:space="preserve" text-anchor="middle" x="223.02" y="-324.73" font-family="Helvetica,sans-Serif" font-size="10.00" fill="#ffffff">wms</text>
</g>
<!-- django&#45;&gt;wms -->
<g id="edge12" class="edge">
<title>django&#45;&gt;wms</title><style>.edge>path:hover{stroke-width:8}</style>
<path fill="none" stroke="black" d="M223.02,-414.7C223.02,-395.8 223.02,-374.53 223.02,-357.99"/>
<polygon fill="#06ef06" stroke="black" points="226.52,-358.4 223.02,-348.4 219.52,-358.4 226.52,-358.4"/>
</g>
<!-- wms&#45;&gt;contacts_admin -->
<g id="edge13" class="edge">
<title>wms&#45;&gt;contacts_admin</title><style>.edge>path:hover{stroke-width:8}</style>
<path fill="none" stroke="black" d="M222.15,-310.13C220.68,-290.91 216.71,-259.46 206.02,-234.57"/>
<path fill="none" stroke="black" d="M206.02,-232.57C192.24,-200.49 158.28,-179.47 129.52,-166.81"/>
<polygon fill="#3b3bce" stroke="black" points="131.19,-163.71 120.61,-163.11 128.5,-170.18 131.19,-163.71"/>
</g>
<!-- wms&#45;&gt;contacts_tests_tests_admin -->
<g id="edge14" class="edge">
<title>wms&#45;&gt;contacts_tests_tests_admin</title><style>.edge>path:hover{stroke-width:8}</style>
<path fill="none" stroke="black" d="M206.02,-232.57C191.71,-199.28 229.04,-179.02 206.02,-151.04"/>
<path fill="none" stroke="black" d="M206.02,-149.04C168.19,-103.08 91.15,-155.01 83.02,-96.04"/>
</g>
</g>
</svg>
