<svg xmlns="http://www.w3.org/2000/svg" width="1720" height="420" viewBox="0 0 1720 420" fill="none">
  <defs>
    <linearGradient id="bg1" x1="0" y1="0" x2="1720" y2="420" gradientUnits="userSpaceOnUse">
      <stop stop-color="#F4F8F3"/>
      <stop offset="1" stop-color="#EEF5F6"/>
    </linearGradient>
    <filter id="shadow" x="0" y="0" width="1720" height="420" filterUnits="userSpaceOnUse" color-interpolation-filters="sRGB">
      <feDropShadow dx="0" dy="8" stdDeviation="10" flood-opacity="0.12"/>
    </filter>
  </defs>

  <rect width="1720" height="420" fill="url(#bg1)"/>
  <text x="60" y="52" fill="#2F3A36" font-family="'DM Sans', sans-serif" font-size="24" font-weight="700">Proposition A - Pills chaleureuse</text>

  <g filter="url(#shadow)">
    <rect x="50" y="78" width="1620" height="78" rx="22" fill="#FFFDF9" stroke="#D9E2DC"/>
  </g>

  <circle cx="95" cy="117" r="18" fill="#6F9A8D"/>
  <text x="125" y="124" fill="#2F3A36" font-family="'DM Sans', sans-serif" font-size="24" font-weight="700">ASF-WMS</text>

  <rect x="360" y="95" width="150" height="44" rx="22" fill="#EDF4F0" stroke="#CAD8D1"/>
  <text x="390" y="123" fill="#2F3A36" font-family="'Nunito Sans', sans-serif" font-size="20" font-weight="600">Accueil</text>

  <rect x="522" y="95" width="158" height="44" rx="22" fill="#EDF4F0" stroke="#CAD8D1"/>
  <text x="551" y="123" fill="#2F3A36" font-family="'Nunito Sans', sans-serif" font-size="20" font-weight="600">Réception</text>

  <rect x="692" y="95" width="190" height="44" rx="22" fill="#6F9A8D"/>
  <text x="726" y="123" fill="#FFFFFF" font-family="'Nunito Sans', sans-serif" font-size="20" font-weight="700">Préparation ▾</text>

  <rect x="894" y="95" width="178" height="44" rx="22" fill="#EDF4F0" stroke="#CAD8D1"/>
  <text x="930" y="123" fill="#2F3A36" font-family="'Nunito Sans', sans-serif" font-size="20" font-weight="600">Voir états</text>

  <rect x="1084" y="95" width="136" height="44" rx="22" fill="#EDF4F0" stroke="#CAD8D1"/>
  <text x="1119" y="123" fill="#2F3A36" font-family="'Nunito Sans', sans-serif" font-size="20" font-weight="600">Admin</text>

  <rect x="1400" y="95" width="120" height="44" rx="14" fill="#F0F5F2" stroke="#D0DDD7"/>
  <text x="1430" y="123" fill="#2F3A36" font-family="'Nunito Sans', sans-serif" font-size="19" font-weight="600">Aide</text>

  <rect x="1535" y="95" width="100" height="44" rx="14" fill="#E7C3A8"/>
  <text x="1558" y="123" fill="#2F3A36" font-family="'Nunito Sans', sans-serif" font-size="19" font-weight="700">Profil</text>

  <g filter="url(#shadow)">
    <rect x="690" y="168" width="300" height="206" rx="18" fill="#FFFDF9" stroke="#D9E2DC"/>
  </g>
  <rect x="708" y="188" width="264" height="40" rx="10" fill="#EDF4F0"/>
  <text x="728" y="213" fill="#2F3A36" font-family="'Nunito Sans', sans-serif" font-size="18" font-weight="700">Préparer des kits</text>

  <text x="728" y="255" fill="#33433D" font-family="'Nunito Sans', sans-serif" font-size="18" font-weight="600">Préparer des colis</text>
  <text x="728" y="291" fill="#33433D" font-family="'Nunito Sans', sans-serif" font-size="18" font-weight="600">Créer expédition</text>
  <text x="728" y="327" fill="#33433D" font-family="'Nunito Sans', sans-serif" font-size="18" font-weight="600">Impression picking</text>

  <text x="60" y="402" fill="#5A6964" font-family="'Nunito Sans', sans-serif" font-size="16">Usage: navigation principale claire + dropdown compact sur les sections à sous-pages.</text>
</svg>
